<svg width="225" height="83" viewBox="0 0 225 83" fill="none" xmlns="http://www.w3.org/2000/svg">
<path d="M0.6 23H6.15L9.75 50.15H9.85L13.45 23H18.5L13.2 58H5.9L0.6 23ZM21.1418 23H26.6418V58H21.1418V23ZM30.7609 23H45.7609V28H36.2609V37.25H43.8109V42.25H36.2609V53H45.7609V58H30.7609V23ZM47.625 23H52.925L55.375 49.9H55.475L58.075 23H64.075L66.675 49.9H66.775L69.225 23H73.975L70.425 58H63.575L61.075 34.4H60.975L58.475 58H51.175L47.625 23ZM83.907 58.5C81.2404 58.5 79.2237 57.75 77.857 56.25C76.4904 54.7167 75.807 52.5333 75.807 49.7V47.7H81.007V50.1C81.007 52.3667 81.957 53.5 83.857 53.5C84.7904 53.5 85.4904 53.2333 85.957 52.7C86.457 52.1333 86.707 51.2333 86.707 50C86.707 48.5333 86.3737 47.25 85.707 46.15C85.0404 45.0167 83.807 43.6667 82.007 42.1C79.7404 40.1 78.157 38.3 77.257 36.7C76.357 35.0667 75.907 33.2333 75.907 31.2C75.907 28.4333 76.607 26.3 78.007 24.8C79.407 23.2667 81.4404 22.5 84.107 22.5C86.7404 22.5 88.7237 23.2667 90.057 24.8C91.4237 26.3 92.107 28.4667 92.107 31.3V32.75H86.907V30.95C86.907 29.75 86.6737 28.8833 86.207 28.35C85.7404 27.7833 85.057 27.5 84.157 27.5C82.3237 27.5 81.407 28.6167 81.407 30.85C81.407 32.1167 81.7404 33.3 82.407 34.4C83.107 35.5 84.357 36.8333 86.157 38.4C88.457 40.4 90.0404 42.2167 90.907 43.85C91.7737 45.4833 92.207 47.4 92.207 49.6C92.207 52.4667 91.4904 54.6667 90.057 56.2C88.657 57.7333 86.607 58.5 83.907 58.5ZM111.318 58.5C108.618 58.5 106.552 57.7333 105.118 56.2C103.685 54.6667 102.968 52.5 102.968 49.7V31.3C102.968 28.5 103.685 26.3333 105.118 24.8C106.552 23.2667 108.618 22.5 111.318 22.5C114.018 22.5 116.085 23.2667 117.518 24.8C118.952 26.3333 119.668 28.5 119.668 31.3V49.7C119.668 52.5 118.952 54.6667 117.518 56.2C116.085 57.7333 114.018 58.5 111.318 58.5ZM111.318 53.5C113.218 53.5 114.168 52.35 114.168 50.05V30.95C114.168 28.65 113.218 27.5 111.318 27.5C109.418 27.5 108.468 28.65 108.468 30.95V50.05C108.468 52.35 109.418 53.5 111.318 53.5ZM123.388 23H137.938V28H128.888V37.75H135.988V42.75H128.888V58H123.388V23ZM148.583 23H156.433L159.933 48.05H160.033L163.533 23H171.383V58H166.183V31.5H166.083L162.083 58H157.483L153.483 31.5H153.383V58H148.583V23ZM175.488 23H180.988V58H175.488V23ZM185.107 23H192.007L197.357 43.95H197.457V23H202.357V58H196.707L190.107 32.45H190.007V58H185.107V23ZM206.445 23H221.445V28H211.945V37.25H219.495V42.25H211.945V53H221.445V58H206.445V23Z" fill="white"/>
<line x1="37" y1="1" x2="188.003" y2="1" stroke="white" stroke-width="2"/>
<line x1="37" y1="82" x2="188.003" y2="82" stroke="white" stroke-width="2"/>
</svg>
